<svg xmlns="http://www.w3.org/2000/svg" viewBox="0 0 492.13 492.53"><defs><style>.cls-1{fill:#fff;}</style></defs><g id="Layer_2" data-name="Layer 2"><g id="Layer_1-2" data-name="Layer 1"><g id="LFeSwu"><path class="cls-1" d="M492.13,492.53H0V0H492.13Zm-47.22-40.26V42.36H35V452.27Z"/><path d="M444.91,452.27H35V42.36h409.9ZM436.48,50.89H43.55V443.67H436.48Z"/><path class="cls-1" d="M436.48,50.89V443.67H43.55V50.89ZM53.24,434H426.63V60.57H53.24Z"/><path d="M53.24,434V60.57H426.63V434Zm364.88-8.44V69.11H61.84V425.52Z"/><path class="cls-1" d="M418.12,425.52H61.84V69.11H418.12ZM225.55,242.78c3.42,0,6.51,0,9.61,0s5.94-.22,8.89,0c2.1.14,5,.08,6.08,1.36,2.4,2.81,5.07,5.84,4.75,10.12-.2,2.65.12,2.89,2.75,3,.52,0,1,0,1.55,0,.14-2.15.33-4.22.4-6.29q.5-15.36.91-30.74a1.64,1.64,0,0,0-.83-1.3,23.87,23.87,0,0,0-3.29-.44,18.69,18.69,0,0,1-.49,3.86c-1.18,3.21-2.23,6.6-5.37,8.56a17.68,17.68,0,0,1-10.06,2.57c-4.17-.11-8.33-.33-12.5-.39-1.57,0-2-.72-1.9-2.13.22-3.77.45-7.54.53-11.32.13-5.78.08-11.56.22-17.34.18-7.42.48-14.84.72-22.26.14-4.44.33-8.89.38-13.34,0-4.18,0-8.36-.13-12.54-.05-1.49.32-2.13,1.87-2.06,4.12.19,8.24.44,12.36.41,8.71-.05,17.42-.27,26.13-.43a3.1,3.1,0,0,0,.81,0c5.28-1.53,11.62,2.69,13.25,8.09.58,1.93.79,4,1.51,5.85.31.79,1.47,1.25,2.25,1.86.42-.67,1.13-1.32,1.2-2,.21-2.06.07-4.15.22-6.21.25-3.3.61-6.59.94-9.88.2-2,.5-3.46-2.3-3.77-1.38-.15-2.81.18-4.22.15-3.43-.05-6.86-.29-10.29-.27s-6.6.42-9.89.38c-4.93-.08-9.85-.53-14.78-.57-4.65-.05-9.31.38-14,.3s-9.12-.58-13.69-.82c-1.81-.09-3.64.06-5.46.06-4,0-7.92-.06-11.88,0a19.21,19.21,0,0,0-3,.31c-1.22.2-1.32.89-.46,1.64a15,15,0,0,0,3.08,2.28c6,3,7.77,8.66,8.29,14.41a255.87,255.87,0,0,1,.75,26.13c-.15,12.14-.69,24.28-1.13,36.42-.26,7.1-1.28,14.17-1.07,21.3.09,3.36,0,6.74,0,10.11,0,1.21.12,2.43.06,3.65-.43,8.79-1,17.57-1.33,26.37-.33,8-.33,16-.75,24.05-.39,7.57-3.79,13.35-10.92,16.64a21.91,21.91,0,0,0-3.45,2.48l.24.55c2.06,0,4.11,0,6.17,0,6.54.06,13.1-.14,19.62.28,5.58.37,11.09.8,17.07-.33-.48-.9-.68-1.87-1.25-2.22a16,16,0,0,1-8.09-13.07c-.49-7.38-.5-14.78-1-22.18-.53-8.51.21-17.1.4-25.66.13-5.8.3-11.6.41-17.4C225.59,248.36,225.55,245.87,225.55,242.78ZM171.7,271.14a7.2,7.2,0,0,1,.16,2.13c-1.39,5.23-3.32,10.13-9.21,11.77a26.17,26.17,0,0,1-6.58,1c-4.09,0-8.19-.31-12.29-.34-1.7,0-2.28-.64-2.17-2.3.24-3.7.44-7.41.52-11.11.12-5.64,0-11.29.19-16.93.19-7.69.53-15.38.76-23.07.06-2.08-.09-4.17-.06-6.26.09-6.47.26-12.93.3-19.4,0-1.27.26-2,1.63-1.9l13.34.65a14.53,14.53,0,0,0,1.6.12c6.33-.26,12.66-.56,19-.82,2-.08,4.08.08,6.08-.19a11.17,11.17,0,0,1,9.73,3.34c2.85,2.74,3.73,6.31,4.42,10a18.35,18.35,0,0,0,.56,1.88l.47-.11V198.31a25.71,25.71,0,0,1-3.15.31c-3-.1-6.1-.7-9.07-.36-6.9.8-13.75.36-20.62-.08-2.33-.16-4.65-.83-7-.78-3.48.09-7,.67-10.43.91-1.73.12-3.49,0-5.23-.07-5.91-.18-11.83-.38-17.75-.54-2.33-.06-4.67,0-7,0s-4.63-.39-7.12,1.06a34,34,0,0,0,4.41,3.31c5.91,3,7.57,8.65,8.08,14.33.77,8.66.83,17.41.73,26.12-.14,12-.63,24-1.15,36-.21,5-1,10-1.29,15.07-.2,3.35.07,6.71,0,10.07-.1,9.75-.15,19.5-.4,29.25-.11,4.17-.78,8.33-.94,12.5-.26,6.54-.09,13.09-.51,19.61-.47,7.26-3.94,12.73-10.72,15.91a23,23,0,0,0-3.58,2.56l.28.61c.65,0,1.29,0,1.94,0,3.65-.11,7.3-.41,11-.31,6.39.17,12.78.66,19.18.87,3.94.13,7.89,0,11.84-.07.5,0,1-.49,1.47-.75-.45-.4-.84-1-1.37-1.18-5.78-1.7-8.5-6.14-10.08-11.45a25.44,25.44,0,0,1-.59-5.61c-.35-6.31-.88-12.62-.91-18.93,0-8.56.33-17.12.52-25.68q.24-10.85.45-21.67c0-1.18,0-2.36,0-3.91,3.81,0,7.32,0,10.83,0,2.56,0,5.13-.27,7.67-.05,2.15.19,5.11.21,6.2,1.54,2.42,2.94,5.29,6.1,4.52,10.57-.28,1.6.66,2.21,2,2.36.78.08,1.57,0,2.51,0,0-1.72-.08-3.27,0-4.8.27-4.37.77-8.74.91-13.12.19-6.2.06-12.42.25-18.62,0-1.48-.52-2-1.73-2.12A26.33,26.33,0,0,0,171.7,271.14Zm145.49,12.14-.65.38a7.84,7.84,0,0,1-1.8-1.37c-3.07-4.28-7.48-6.56-12.34-7.83-10.53-2.75-20.84-2.15-30.7,2.84-2,1-4.23,1.59-5.89,2.94a78.49,78.49,0,0,0-7.47,7.35c-6.5,6.93-10.63,15.35-13.75,24.11-2.31,6.47-2.2,13.5-1.46,20.37.77,7.13,3.45,13.73,6.33,20.17a41,41,0,0,0,6.71,10.5c6.26,7,14.45,10.91,23.56,12.77,4.27.88,8.65,1.17,13,1.86,4.12.66,8.19.82,12.12-.87,2.7-1.16,5.41-2.33,8-3.7a33.4,33.4,0,0,0,4.59-3.2c.66-.5,1.6-1.13,1.68-1.8a58.85,58.85,0,0,0,.08-6.36c-1.19,1.07-1.95,1.69-2.64,2.38-2.9,2.85-5.35,6-9.74,7.17a49.37,49.37,0,0,1-16.41,1.62c-7.66-.64-13.3-5.28-18.35-10.54a41.85,41.85,0,0,1-10.92-19.21c-1.79-7.26-3.3-14.52-3-21.95a75.38,75.38,0,0,1,2.3-13.67,49.26,49.26,0,0,1,3.17-9.76c3.17-6.83,7.53-12.69,14.33-16.52a25.79,25.79,0,0,1,13.57-3.8,50.91,50.91,0,0,1,11.33,1.59,11.73,11.73,0,0,1,6.11,3.71c2.66,3.49,5.94,6.67,7.24,11.09.65,2.19,1.42,4.36,2.21,6.51.41,1.1,1,2.13,1.49,3.2l.71-.21c.42-8.53.83-17.06,1.26-25.89l-2.6-.3c-1.53-.19-2.27.27-2.06,2A38.33,38.33,0,0,1,317.19,283.28Zm56.14,62.78a68.16,68.16,0,0,0-1.67-7.46c-2.45-7.54-6-14.25-14.38-16.72a33.57,33.57,0,0,0-4.71-1.12c-4.31-.6-8.79-1.06-12.78.83-7,3.32-12.49,8.4-15.58,15.75a35.46,35.46,0,0,0-2.44,21c1.56,7.88,4.44,15.1,12,19.25,7.25,4,14.87,5,22.55,1.62,4.85-2.13,8.29-6,11.12-10.54C371.52,362.11,373,355,373.33,346.06ZM137.39,123l.55-.18c.07-1.4.08-2.8.21-4.19.24-2.41.13-2.59-2.26-2.59-6.08,0-12.15,0-18.23,0-7.42,0-14.84-.13-22.26-.15-.37,0-1.06.5-1.08.79-.1,1.81,0,3.62,0,5.43l.58,0c2.33-3.69,5.47-5.66,10-5a27.69,27.69,0,0,0,5.46.19c1.74-.1,2.21.59,2.19,2.21,0,4.11.05,8.23,0,12.34,0,7.3-.07,14.59-.11,21.88q-.06,12.45-.12,24.89c0,3.16.39,6.4-1.84,9.11-.86,1.06-1.78,2.07-2.87,3.34,5.22,0,10.45.42,15.68-.61a8.81,8.81,0,0,0-2.09-1.78,8.28,8.28,0,0,1-3.51-7.31c.11-3.42.64-6.84.7-10.27.16-8.26.14-16.53.22-24.8,0-5.6.09-11.19.22-16.79.07-3.49.25-7,.49-10.46,0-.47.68-1.28,1.07-1.29,3.83-.18,7.67-.28,11.51-.28a4.37,4.37,0,0,1,4.22,2.93C136.48,121.24,137,122.09,137.39,123ZM158,146.22c.8,1.85,2.05,3.47,2.1,5.13.15,4.51-.22,9-.35,13.56,0,1.34-.63,1.66-1.93,1.58-2.15-.12-4.32,0-6.48,0-4,0-8.05,0-12.27,0,0-3.24.09-6.46,0-9.68s0-6.34,2.17-9c.13-.16.12-.45.2-.83h-8.78c.62,1.32,1.4,2.34,1.55,3.45a42,42,0,0,1,.3,6.45c-.15,7.76-.4,15.52-.57,23.29-.07,3.1.26,6.3-3.32,8.65h10.94a4.3,4.3,0,0,1-2.9-4.62c.19-4.38.13-8.78.19-13.16,0-2.52.13-2.67,2.76-2.69,5.47,0,10.94,0,16.41,0,1.53,0,1.81.58,1.76,1.92-.17,4-.35,8-.3,11.95,0,2.85-.26,5.39-3.66,6.91,4,1.34,7.4.44,10.37.44a34.25,34.25,0,0,1-1.69-5.21,27.67,27.67,0,0,1,0-5.23c.19-6.6.27-13.2.64-19.79.23-3.89-.74-8,1.52-11.65.15-.23-.47-1.37-.77-1.38C163.22,146.18,160.57,146.22,158,146.22ZM194.08,154l.81-.12a35.26,35.26,0,0,1,.49-4.73c.4-1.67-.39-2.11-1.72-2.14-2.56,0-5.13,0-7.69,0H169.74c.14.64.3,1.46.51,2.26.34,1.29,1.05,2.58,1,3.87-.16,9.38-.43,18.75-.76,28.13-.09,2.57-.48,5.13-.79,8.25,7.23,0,14,0,20.69,0a2.71,2.71,0,0,0,1.37-.26c.48-.3,1.13-.77,1.18-1.23.22-1.8.22-3.61.31-5.42l-.5-.13a24.19,24.19,0,0,0-1.47,2.3,5.86,5.86,0,0,1-6.57,3.54,57.83,57.83,0,0,0-7.67-.33c-1.68,0-2.33-.51-2.23-2.19q.45-6.85.76-13.72c.18-3.77.14-3.77,3.84-3.74a1.47,1.47,0,0,0,.21,0c2.74-.4,4.93.09,5.44,3.34,0,.11.29.17.64.36.22-3.43.42-6.69.66-10.29-2,1.6-1.29,4.77-4,5a46.81,46.81,0,0,1-6.35-.36c0-5.45.08-10.63-.05-15.8,0-1.44.4-1.75,1.68-1.71,3.71.09,7.43.12,11.15.15,2.72,0,3.6.71,4.44,3.4A9.8,9.8,0,0,0,194.08,154Z"/><path d="M225.55,242.78c0,3.09,0,5.58,0,8.07-.11,5.8-.28,11.6-.41,17.4-.19,8.56-.93,17.15-.4,25.66.46,7.4.47,14.8,1,22.18a16,16,0,0,0,8.09,13.07c.57.35.77,1.32,1.25,2.22-6,1.13-11.49.7-17.07.33-6.52-.42-13.08-.22-19.62-.28-2.06,0-4.11,0-6.17,0l-.24-.55a21.91,21.91,0,0,1,3.45-2.48c7.13-3.29,10.53-9.07,10.92-16.64.42-8,.42-16,.75-24.05.36-8.8.9-17.58,1.33-26.37.06-1.22-.06-2.44-.06-3.65,0-3.37,0-6.75,0-10.11-.21-7.13.81-14.2,1.07-21.3.44-12.14,1-24.28,1.13-36.42a255.87,255.87,0,0,0-.75-26.13c-.52-5.75-2.28-11.45-8.29-14.41a15,15,0,0,1-3.08-2.28c-.86-.75-.76-1.44.46-1.64a19.21,19.21,0,0,1,3-.31c4,0,7.92,0,11.88,0,1.82,0,3.65-.15,5.46-.06,4.57.24,9.13.74,13.69.82s9.32-.35,14-.3c4.93,0,9.85.49,14.78.57,3.29,0,6.59-.36,9.89-.38s6.86.22,10.29.27c1.41,0,2.84-.3,4.22-.15,2.8.31,2.5,1.8,2.3,3.77-.33,3.29-.69,6.58-.94,9.88-.15,2.06,0,4.15-.22,6.21-.07.71-.78,1.36-1.2,2-.78-.61-1.94-1.07-2.25-1.86-.72-1.87-.93-3.92-1.51-5.85-1.63-5.4-8-9.62-13.25-8.09a3.1,3.1,0,0,1-.81,0c-8.71.16-17.42.38-26.13.43-4.12,0-8.24-.22-12.36-.41-1.55-.07-1.92.57-1.87,2.06.15,4.18.18,8.36.13,12.54-.05,4.45-.24,8.9-.38,13.34-.24,7.42-.54,14.84-.72,22.26-.14,5.78-.09,11.56-.22,17.34-.08,3.78-.31,7.55-.53,11.32-.08,1.41.33,2.1,1.9,2.13,4.17.06,8.33.28,12.5.39a17.68,17.68,0,0,0,10.06-2.57c3.14-2,4.19-5.35,5.37-8.56a18.69,18.69,0,0,0,.49-3.86,23.87,23.87,0,0,1,3.29.44,1.64,1.64,0,0,1,.83,1.3q-.39,15.38-.91,30.74c-.07,2.07-.26,4.14-.4,6.29-.51,0-1,0-1.55,0-2.63-.11-2.95-.35-2.75-3,.32-4.28-2.35-7.31-4.75-10.12-1.08-1.28-4-1.22-6.08-1.36-3-.19-5.93,0-8.89,0S229,242.78,225.55,242.78Z"/><path d="M171.7,271.14a26.33,26.33,0,0,1,2.68,0c1.21.13,1.77.64,1.73,2.12-.19,6.2-.06,12.42-.25,18.62-.14,4.38-.64,8.75-.91,13.12-.1,1.53,0,3.08,0,4.8-.94,0-1.73.07-2.51,0-1.37-.15-2.31-.76-2-2.36.77-4.47-2.1-7.63-4.52-10.57-1.09-1.33-4.05-1.35-6.2-1.54-2.54-.22-5.11,0-7.67.05-3.51,0-7,0-10.83,0,0,1.55,0,2.73,0,3.91q-.21,10.83-.45,21.67c-.19,8.56-.56,17.12-.52,25.68,0,6.31.56,12.62.91,18.93a25.44,25.44,0,0,0,.59,5.61c1.58,5.31,4.3,9.75,10.08,11.45.53.16.92.78,1.37,1.18-.49.26-1,.74-1.47.75-3.95.08-7.9.2-11.84.07-6.4-.21-12.79-.7-19.18-.87-3.65-.1-7.3.2-11,.31-.65,0-1.29,0-1.94,0l-.28-.61a23,23,0,0,1,3.58-2.56c6.78-3.18,10.25-8.65,10.72-15.91.42-6.52.25-13.07.51-19.61.16-4.17.83-8.33.94-12.5.25-9.75.3-19.5.4-29.25,0-3.36-.24-6.72,0-10.07.29-5,1.08-10,1.29-15.07.52-12,1-24,1.15-36,.1-8.71,0-17.46-.73-26.12-.51-5.68-2.17-11.33-8.08-14.33a34,34,0,0,1-4.41-3.31c2.49-1.45,4.84-1.05,7.12-1.06s4.67-.05,7,0c5.92.16,11.84.36,17.75.54,1.74,0,3.5.19,5.23.07,3.48-.24,7-.82,10.43-.91,2.31-.05,4.63.62,7,.78,6.87.44,13.72.88,20.62.08,3-.34,6,.26,9.07.36a25.71,25.71,0,0,0,3.15-.31v21.25l-.47.11a18.35,18.35,0,0,1-.56-1.88c-.69-3.68-1.57-7.25-4.42-10a11.17,11.17,0,0,0-9.73-3.34c-2,.27-4.05.11-6.08.19-6.33.26-12.66.56-19,.82a14.53,14.53,0,0,1-1.6-.12L145,204.7c-1.37-.07-1.63.63-1.63,1.9,0,6.47-.21,12.93-.3,19.4,0,2.09.12,4.18.06,6.26-.23,7.69-.57,15.38-.76,23.07-.15,5.64-.07,11.29-.19,16.93-.08,3.7-.28,7.41-.52,11.11-.11,1.66.47,2.28,2.17,2.3,4.1,0,8.2.38,12.29.34a26.17,26.17,0,0,0,6.58-1c5.89-1.64,7.82-6.54,9.21-11.77A7.2,7.2,0,0,0,171.7,271.14Z"/><path d="M317.19,283.28a38.33,38.33,0,0,0,0-4.42c-.21-1.73.53-2.19,2.06-2l2.6.3c-.43,8.83-.84,17.36-1.26,25.89l-.71.21c-.5-1.07-1.08-2.1-1.49-3.2-.79-2.15-1.56-4.32-2.21-6.51-1.3-4.42-4.58-7.6-7.24-11.09a11.73,11.73,0,0,0-6.11-3.71,50.91,50.91,0,0,0-11.33-1.59A25.79,25.79,0,0,0,277.9,281c-6.8,3.83-11.16,9.69-14.33,16.52a49.26,49.26,0,0,0-3.17,9.76,75.38,75.38,0,0,0-2.3,13.67c-.29,7.43,1.22,14.69,3,21.95A41.85,41.85,0,0,0,272,362.07c5.05,5.26,10.69,9.9,18.35,10.54A49.37,49.37,0,0,0,306.79,371c4.39-1.13,6.84-4.32,9.74-7.17.69-.69,1.45-1.31,2.64-2.38a58.85,58.85,0,0,1-.08,6.36c-.08.67-1,1.3-1.68,1.8a33.4,33.4,0,0,1-4.59,3.2c-2.6,1.37-5.31,2.54-8,3.7-3.93,1.69-8,1.53-12.12.87-4.31-.69-8.69-1-13-1.86-9.11-1.86-17.3-5.77-23.56-12.77a41,41,0,0,1-6.71-10.5c-2.88-6.44-5.56-13-6.33-20.17-.74-6.87-.85-13.9,1.46-20.37,3.12-8.76,7.25-17.18,13.75-24.11a78.49,78.49,0,0,1,7.47-7.35c1.66-1.35,3.93-1.95,5.89-2.94,9.86-5,20.17-5.59,30.7-2.84,4.86,1.27,9.27,3.55,12.34,7.83a7.84,7.84,0,0,0,1.8,1.37Z"/><path d="M373.33,346.06c-.29,9-1.81,16.05-5.86,22.62-2.83,4.59-6.27,8.41-11.12,10.54-7.68,3.36-15.3,2.35-22.55-1.62-7.59-4.15-10.47-11.37-12-19.25a35.46,35.46,0,0,1,2.44-21c3.09-7.35,8.57-12.43,15.58-15.75,4-1.89,8.47-1.43,12.78-.83a33.57,33.57,0,0,1,4.71,1.12c8.39,2.47,11.93,9.18,14.38,16.72A68.16,68.16,0,0,1,373.33,346.06ZM330,353.94l-.57.13c.89,4,1.46,8.09,2.74,11.95,2.88,8.64,10.18,12.72,18.75,10.08a6.36,6.36,0,0,0,2.77-1.54c8-8.85,11.91-19.16,10.83-31.15a25.72,25.72,0,0,0-1.51-6.9,30.41,30.41,0,0,0-7.95-11.13,6.58,6.58,0,0,0-2.86-1.34c-6.16-1.51-10.73,1.36-14.26,5.9C332.51,336.94,330.25,345.14,330,353.94Z"/><path d="M137.39,123c-.43-.88-.91-1.73-1.29-2.63a4.37,4.37,0,0,0-4.22-2.93c-3.84,0-7.68.1-11.51.28-.39,0-1,.82-1.07,1.29-.24,3.48-.42,7-.49,10.46-.13,5.6-.17,11.19-.22,16.79-.08,8.27-.06,16.54-.22,24.8-.06,3.43-.59,6.85-.7,10.27a8.28,8.28,0,0,0,3.51,7.31,8.81,8.81,0,0,1,2.09,1.78c-5.23,1-10.46.63-15.68.61,1.09-1.27,2-2.28,2.87-3.34,2.23-2.71,1.83-5.95,1.84-9.11q0-12.45.12-24.89c0-7.29.09-14.58.11-21.88,0-4.11-.09-8.23,0-12.34,0-1.62-.45-2.31-2.19-2.21a27.69,27.69,0,0,1-5.46-.19c-4.52-.62-7.66,1.35-10,5l-.58,0c0-1.81,0-3.62,0-5.43,0-.29.71-.79,1.08-.79,7.42,0,14.84.11,22.26.15,6.08,0,12.15,0,18.23,0,2.39,0,2.5.18,2.26,2.59-.13,1.39-.14,2.79-.21,4.19Z"/><path d="M158,146.22c2.54,0,5.19,0,7.84.07.3,0,.92,1.15.77,1.38-2.26,3.67-1.29,7.76-1.52,11.65-.37,6.59-.45,13.19-.64,19.79a27.67,27.67,0,0,0,0,5.23,34.25,34.25,0,0,0,1.69,5.21c-3,0-6.41.9-10.37-.44,3.4-1.52,3.69-4.06,3.66-6.91-.05-4,.13-8,.3-11.95.05-1.34-.23-1.95-1.76-1.92-5.47.07-10.94,0-16.41,0-2.63,0-2.73.17-2.76,2.69-.06,4.38,0,8.78-.19,13.16a4.3,4.3,0,0,0,2.9,4.62H130.63c3.58-2.35,3.25-5.55,3.32-8.65.17-7.77.42-15.53.57-23.29a42,42,0,0,0-.3-6.45c-.15-1.11-.93-2.13-1.55-3.45h8.78c-.08.38-.07.67-.2.83-2.12,2.67-2.28,5.78-2.17,9s0,6.44,0,9.68c4.22,0,8.24,0,12.27,0,2.16,0,4.33-.14,6.48,0,1.3.08,1.89-.24,1.93-1.58.13-4.53.5-9,.35-13.56C160.08,149.69,158.83,148.07,158,146.22Z"/><path d="M194.08,154a9.8,9.8,0,0,1-.81-1.62c-.84-2.69-1.72-3.37-4.44-3.4-3.72,0-7.44-.06-11.15-.15-1.28,0-1.71.27-1.68,1.71.13,5.17.05,10.35.05,15.8a46.81,46.81,0,0,0,6.35.36c2.69-.2,2-3.37,4-5-.24,3.6-.44,6.86-.66,10.29-.35-.19-.63-.25-.64-.36-.51-3.25-2.7-3.74-5.44-3.34a1.47,1.47,0,0,1-.21,0c-3.7,0-3.66,0-3.84,3.74q-.32,6.85-.76,13.72c-.1,1.68.55,2.22,2.23,2.19a57.83,57.83,0,0,1,7.67.33,5.86,5.86,0,0,0,6.57-3.54,24.19,24.19,0,0,1,1.47-2.3l.5.13c-.09,1.81-.09,3.62-.31,5.42-.05.46-.7.93-1.18,1.23a2.71,2.71,0,0,1-1.37.26c-6.73,0-13.46,0-20.69,0,.31-3.12.7-5.68.79-8.25.33-9.38.6-18.75.76-28.13,0-1.29-.68-2.58-1-3.87-.21-.8-.37-1.62-.51-2.26H186c2.56,0,5.13,0,7.69,0,1.33,0,2.12.47,1.72,2.14a35.26,35.26,0,0,0-.49,4.73Z"/><path class="cls-1" d="M330,353.94c.23-8.8,2.49-17,7.94-24,3.53-4.54,8.1-7.41,14.26-5.9a6.58,6.58,0,0,1,2.86,1.34A30.41,30.41,0,0,1,363,336.51a25.72,25.72,0,0,1,1.51,6.9c1.08,12-2.85,22.3-10.83,31.15a6.36,6.36,0,0,1-2.77,1.54c-8.57,2.64-15.87-1.44-18.75-10.08-1.28-3.86-1.85-8-2.74-11.95Z"/></g></g></g></svg>